<?xml version="1.0" encoding="UTF-8"?>
<svg xmlns="http://www.w3.org/2000/svg" xmlns:xlink="http://www.w3.org/1999/xlink" width="856.15pt" height="856pt" viewBox="0 0 856.15 856" version="1.1">
<defs>
<clipPath id="clip1">
  <path d="M 0 0 L 856.148438 0 L 856.148438 856 L 0 856 Z M 0 0 "/>
</clipPath>
</defs>
<g id="surface1">
<g clip-path="url(#clip1)" clip-rule="nonzero">
<path style=" stroke:none;fill-rule:nonzero;fill:rgb(37.998962%,67.498779%,77.999878%);fill-opacity:1;" d="M 856.152344 427.9375 C 856.152344 664.445313 664.476563 856 428.0625 856 C 191.640625 856 0 664.445313 0 427.9375 C 0 191.550781 191.640625 0 428.0625 0 C 664.476563 0 856.152344 191.550781 856.152344 427.9375 "/>
</g>
<path style=" stroke:none;fill-rule:nonzero;fill:rgb(100%,100%,100%);fill-opacity:1;" d="M 241.804688 605.839844 L 241.804688 348.140625 L 310.003906 348.140625 L 310.003906 605.839844 Z M 241.804688 313.183594 L 241.804688 250.160156 L 310.003906 250.160156 L 310.003906 313.183594 L 241.804688 313.183594 "/>
<path style=" stroke:none;fill-rule:nonzero;fill:rgb(100%,100%,100%);fill-opacity:1;" d="M 614.316406 605.839844 L 546.15625 605.839844 L 546.15625 474.324219 C 546.15625 446.519531 544.691406 428.582031 541.765625 420.398438 C 538.878906 412.207031 534.136719 405.839844 527.574219 401.296875 C 521.007813 396.746094 513.148438 394.535156 503.921875 394.535156 C 492.097656 394.535156 481.503906 397.78125 472.117188 404.28125 C 462.726563 410.648438 456.296875 419.226563 452.8125 429.886719 C 449.34375 440.539063 447.617188 460.421875 447.617188 489.144531 L 447.617188 605.839844 L 379.425781 605.839844 L 379.425781 348.140625 L 442.746094 348.140625 L 442.746094 385.960938 C 465.257813 356.851563 493.554688 342.292969 527.667969 342.292969 C 542.742188 342.292969 556.484375 345.152344 568.960938 350.480469 C 581.40625 355.9375 590.828125 362.824219 597.222656 371.273438 C 603.625 379.59375 608.042969 389.207031 610.542969 399.863281 C 613.078125 410.390625 614.316406 425.726563 614.316406 445.734375 L 614.316406 605.839844 "/>
</g>
</svg>
